<?xml version="1.0" encoding="UTF-8" standalone="no"?>
<!-- Created with Inkscape (http://www.inkscape.org/) -->

<svg
   width="1920"
   height="1080"
   viewBox="0 0 507.99998 285.75"
   version="1.1"
   id="svg5"
   inkscape:version="1.2.2 (732a01da63, 2022-12-09)"
   sodipodi:docname="background_exp.svg"
   xmlns:inkscape="http://www.inkscape.org/namespaces/inkscape"
   xmlns:sodipodi="http://sodipodi.sourceforge.net/DTD/sodipodi-0.dtd"
   xmlns="http://www.w3.org/2000/svg"
   xmlns:svg="http://www.w3.org/2000/svg">
  <sodipodi:namedview
     id="namedview7"
     pagecolor="#ffffff"
     bordercolor="#000000"
     borderopacity="0.25"
     inkscape:showpageshadow="2"
     inkscape:pageopacity="0.0"
     inkscape:pagecheckerboard="0"
     inkscape:deskcolor="#d1d1d1"
     inkscape:document-units="mm"
     showgrid="false"
     inkscape:zoom="0.5"
     inkscape:cx="1068"
     inkscape:cy="507"
     inkscape:window-width="1920"
     inkscape:window-height="1001"
     inkscape:window-x="-9"
     inkscape:window-y="-9"
     inkscape:window-maximized="1"
     inkscape:current-layer="layer1" />
  <defs
     id="defs2">
    <inkscape:path-effect
       effect="interpolate"
       id="path-effect6087"
       is_visible="true"
       lpeversion="1"
       trajectory="M 557.61755,174.62196 C 287.04256,168.72271 24.304674,214.46889 2.1463238,137.05441"
       equidistant_spacing="true"
       steps="32"
       trajectory-nodetypes="cc" />
    <inkscape:path-effect
       effect="skeletal"
       id="path-effect1837"
       is_visible="true"
       lpeversion="1"
       pattern="M 0,4.9921382 C 0,2.2364779 2.2364779,0 4.9921382,0 c 2.7556602,0 4.9921381,2.2364779 4.9921381,4.9921382 0,2.7556602 -2.2364779,4.9921381 -4.9921381,4.9921381 C 2.2364779,9.9842763 0,7.7477984 0,4.9921382 Z"
       copytype="single_stretched"
       prop_scale="-0.35143539"
       scale_y_rel="false"
       spacing="0"
       normal_offset="0"
       tang_offset="0"
       prop_units="false"
       vertical_pattern="false"
       hide_knot="false"
       fuse_tolerance="0" />
    <inkscape:path-effect
       effect="interpolate"
       id="path-effect1779"
       is_visible="true"
       lpeversion="1"
       trajectory="M -109.96253,54.720507 C -23.185684,196.74151 192.06887,334.08354 397.16721,342.76907"
       equidistant_spacing="true"
       steps="30"
       trajectory-nodetypes="cc" />
    <inkscape:path-effect
       effect="skeletal"
       id="path-effect1776"
       is_visible="true"
       lpeversion="1"
       pattern="M 0,4.9921382 C 0,2.2364779 2.2364779,0 4.9921382,0 c 2.7556602,0 4.9921381,2.2364779 4.9921381,4.9921382 0,2.7556602 -2.2364779,4.9921381 -4.9921381,4.9921381 C 2.2364779,9.9842763 0,7.7477984 0,4.9921382 Z"
       copytype="single_stretched"
       prop_scale="0.093085137"
       scale_y_rel="false"
       spacing="0"
       normal_offset="0"
       tang_offset="0"
       prop_units="false"
       vertical_pattern="false"
       hide_knot="false"
       fuse_tolerance="0" />
    <inkscape:path-effect
       effect="skeletal"
       id="path-effect1674"
       is_visible="true"
       lpeversion="1"
       pattern="M 0,4.9921382 C 0,2.2364779 2.2364779,0 4.9921382,0 c 2.7556602,0 4.9921381,2.2364779 4.9921381,4.9921382 0,2.7556602 -2.2364779,4.9921381 -4.9921381,4.9921381 C 2.2364779,9.9842763 0,7.7477984 0,4.9921382 Z"
       copytype="single_stretched"
       prop_scale="0.093085137"
       scale_y_rel="false"
       spacing="0"
       normal_offset="0"
       tang_offset="0"
       prop_units="false"
       vertical_pattern="false"
       hide_knot="false"
       fuse_tolerance="0" />
    <inkscape:path-effect
       effect="skeletal"
       id="path-effect1670"
       is_visible="true"
       lpeversion="1"
       pattern="M 0,4.9921382 C 0,2.2364779 2.2364779,0 4.9921382,0 c 2.7556602,0 4.9921381,2.2364779 4.9921381,4.9921382 0,2.7556602 -2.2364779,4.9921381 -4.9921381,4.9921381 C 2.2364779,9.9842763 0,7.7477984 0,4.9921382 Z"
       copytype="single_stretched"
       prop_scale="0.5"
       scale_y_rel="false"
       spacing="0"
       normal_offset="0"
       tang_offset="0"
       prop_units="false"
       vertical_pattern="false"
       hide_knot="false"
       fuse_tolerance="0" />
    <inkscape:path-effect
       effect="skeletal"
       id="path-effect1666"
       is_visible="true"
       lpeversion="1"
       pattern="M 0,4.9921382 C 0,2.2364779 2.2364779,0 4.9921382,0 c 2.7556602,0 4.9921381,2.2364779 4.9921381,4.9921382 0,2.7556602 -2.2364779,4.9921381 -4.9921381,4.9921381 C 2.2364779,9.9842763 0,7.7477984 0,4.9921382 Z"
       copytype="single_stretched"
       prop_scale="1"
       scale_y_rel="false"
       spacing="0"
       normal_offset="0"
       tang_offset="0"
       prop_units="false"
       vertical_pattern="false"
       hide_knot="false"
       fuse_tolerance="0" />
    <inkscape:path-effect
       effect="skeletal"
       id="path-effect1662"
       is_visible="true"
       lpeversion="1"
       pattern="M 0,4.9921382 C 0,2.2364779 2.2364779,0 4.9921382,0 c 2.7556602,0 4.9921381,2.2364779 4.9921381,4.9921382 0,2.7556602 -2.2364779,4.9921381 -4.9921381,4.9921381 C 2.2364779,9.9842763 0,7.7477984 0,4.9921382 Z"
       copytype="single_stretched"
       prop_scale="1"
       scale_y_rel="false"
       spacing="0"
       normal_offset="0"
       tang_offset="0"
       prop_units="false"
       vertical_pattern="false"
       hide_knot="false"
       fuse_tolerance="0" />
    <inkscape:path-effect
       effect="skeletal"
       id="path-effect1550"
       is_visible="true"
       lpeversion="1"
       pattern="M 0,4.9921382 C 0,2.2364779 2.2364779,0 4.9921382,0 c 2.7556602,0 4.9921381,2.2364779 4.9921381,4.9921382 0,2.7556602 -2.2364779,4.9921381 -4.9921381,4.9921381 C 2.2364779,9.9842763 0,7.7477984 0,4.9921382 Z"
       copytype="single_stretched"
       prop_scale="1"
       scale_y_rel="false"
       spacing="0"
       normal_offset="0"
       tang_offset="0"
       prop_units="false"
       vertical_pattern="false"
       hide_knot="false"
       fuse_tolerance="0" />
    <inkscape:path-effect
       effect="skeletal"
       id="path-effect1546"
       is_visible="true"
       lpeversion="1"
       pattern="M 0,4.9921382 C 0,2.2364779 2.2364779,0 4.9921382,0 c 2.7556602,0 4.9921381,2.2364779 4.9921381,4.9921382 0,2.7556602 -2.2364779,4.9921381 -4.9921381,4.9921381 C 2.2364779,9.9842763 0,7.7477984 0,4.9921382 Z"
       copytype="single_stretched"
       prop_scale="1"
       scale_y_rel="false"
       spacing="0"
       normal_offset="0"
       tang_offset="0"
       prop_units="false"
       vertical_pattern="false"
       hide_knot="false"
       fuse_tolerance="0" />
    <inkscape:path-effect
       effect="skeletal"
       id="path-effect238"
       is_visible="true"
       lpeversion="1"
       pattern="M 0,4.9921382 C 0,2.2364779 2.2364779,0 4.9921382,0 c 2.7556602,0 4.9921381,2.2364779 4.9921381,4.9921382 0,2.7556602 -2.2364779,4.9921381 -4.9921381,4.9921381 C 2.2364779,9.9842763 0,7.7477984 0,4.9921382 Z"
       copytype="single_stretched"
       prop_scale="1"
       scale_y_rel="false"
       spacing="0"
       normal_offset="0"
       tang_offset="0"
       prop_units="false"
       vertical_pattern="false"
       hide_knot="false"
       fuse_tolerance="0" />
  </defs>
  <g
     inkscape:label="Layer 1"
     inkscape:groupmode="layer"
     id="layer1">
    <path
       id="path6084"
       style="opacity:0.6;fill:none;fill-opacity:1;stroke:#0822ff;stroke-width:0.428;stroke-dasharray:none;stroke-opacity:0.712018"
       d="M -5.7157324,6.8788507 C 86.630007,135.99496 130.87643,120.01588 213.17173,146.57949 c 73.46581,23.71359 64.97228,81.15429 132.59465,107.41697 49.15145,19.08908 208.39076,-95.77082 208.39076,-95.77082 M -5.1521658,11.678904 C 86.39918,139.07105 131.00426,123.09417 211.13967,148.54611 c 72.32074,22.318 68.63347,77.24669 134.88364,102.63759 52.37236,18.32725 208.39642,-88.77248 208.39642,-88.77248 M -4.5653376,16.475568 C 86.191615,142.14375 131.15534,126.16906 209.13088,150.50935 c 71.17566,20.92241 72.29465,73.33907 137.17263,97.85821 55.59326,17.56541 208.40206,-81.77416 208.40206,-81.77416 M -3.9570675,21.268939 C 86.005492,145.21316 131.32787,129.24067 207.14352,152.46929 c 70.03059,19.52682 75.95585,69.43147 139.46163,93.07883 58.81417,16.80358 208.40771,-74.77582 208.40771,-74.77582 M -3.3291269,26.059145 C 85.839039,148.2794 131.52008,132.3091 205.17584,154.42607 c 68.8855,18.13123 79.61703,65.52386 141.75062,88.29945 62.03507,16.04175 208.41336,-67.77749 208.41336,-67.77749 M -2.6832554,30.846344 C 85.690517,151.34263 131.73021,135.37453 203.22609,156.37984 c 67.74042,16.73564 83.27822,61.61625 144.03961,83.52007 65.25598,15.27991 208.41901,-60.77916 208.41901,-60.77916 M -2.021178,35.630728 C 85.558201,154.40305 131.95655,138.43715 201.29254,158.33079 c 66.59535,15.34005 86.93941,57.70865 146.32861,78.74069 68.47688,14.51809 208.42466,-53.78082 208.42466,-53.78082 M -1.3446222,40.412516 C 85.440363,157.46088 132.19736,141.49717 199.37347,160.27915 c 65.45028,13.94446 90.6006,53.80104 148.61761,73.96131 71.69778,13.75625 208.4303,-46.78248 208.4303,-46.78248 M -0.65533478,45.191963 C 85.335257,160.51636 132.45091,144.55485 197.46713,162.22516 c 64.3052,12.54888 94.26179,49.89344 150.90661,69.18194 74.91868,12.99442 208.43595,-39.78415 208.43595,-39.78415 M 0.0449012,49.96935 C 85.2411,163.56978 132.71541,147.61046 195.57174,164.16912 c 63.16013,11.15328 97.92299,45.98583 153.1956,64.40256 78.13959,12.23258 208.4416,-32.78582 208.4416,-32.78582 M 0.75424937,54.744991 C 85.156054,166.62146 132.98902,150.66434 193.68547,166.11133 c 62.01504,9.7577 101.58417,42.07822 155.48459,59.62318 81.36049,11.47075 208.44725,-25.78749 208.44725,-25.78749 M 1.470803,59.519231 C 85.078215,169.67174 133.26983,153.71681 191.8064,168.05214 c 60.86997,8.36211 105.24536,38.17062 157.77359,54.8438 84.58139,10.70892 208.45289,-18.78915 208.45289,-18.78915 M 2.1925554,64.292447 C 85.005573,172.72099 133.55584,156.76826 189.93253,169.99193 c 59.72489,6.96651 108.90654,34.26301 160.06258,50.06442 87.8023,9.94709 208.45854,-11.79082 208.45854,-11.79082 M 2.9173572,69.065059 C 84.935982,175.76964 133.84491,159.8191 188.0617,171.93111 c 58.57982,5.57093 112.56774,30.3554 162.35158,45.28504 91.0232,9.18525 208.46419,-4.79248 208.46419,-4.79248 M 3.6428783,73.837527 C 84.86711,178.81814 134.13469,162.8698 186.1916,173.87015 c 57.43474,4.17533 116.22893,26.44779 164.64057,40.50566 94.24411,8.42342 208.46984,2.20585 208.46984,2.20585 M 4.3665453,78.610365 C 84.796383,181.86702 134.42261,165.92087 184.31964,175.80956 c 56.28966,2.77974 119.89012,22.54018 166.92957,35.72628 97.46501,7.66159 208.47549,9.20418 208.47549,9.20418 M 5.0854748,83.384139 C 84.720919,184.91683 134.7058,168.97287 182.44295,177.7499 c 55.14458,1.38416 123.5513,18.63258 169.21856,30.94691 100.68591,6.89975 208.48114,16.20251 208.48114,16.20251 M 5.7963848,88.159476 C 84.637436,187.9682 134.98098,172.02644 180.55823,179.69181 c 53.99951,-0.0114 127.2125,14.72497 171.50756,26.16753 103.90682,6.13792 208.48678,23.20084 208.48678,23.20084 M 6.4954911,92.937077 C 84.542148,191.02184 135.24434,175.08227 178.66172,181.63598 c 52.85443,-1.40702 130.87368,10.81737 173.79655,21.38815 107.12772,5.37609 208.49243,30.19918 208.49243,30.19918 M 7.1783274,97.71772 c 77.2522636,96.3608 128.3131126,80.42343 169.5706026,85.86548 51.70935,-2.80262 134.53487,6.90975 176.08554,16.60876 110.34863,4.61426 208.49808,37.19751 208.49808,37.19751 M 7.8394714,102.50227 C 84.297342,197.1391 135.71684,181.20392 174.81445,185.53431 c 50.56427,-4.1982 138.19606,3.00215 178.37454,11.82939 113.56952,3.85242 208.50373,44.19584 208.50373,44.19584 M 8.4722289,107.29165 c 75.6634771,92.91287 127.4416311,76.97989 164.3793511,80.19862 49.4192,-5.59379 141.85725,-0.90546 180.66354,7.05001 116.79043,3.09059 208.50937,51.19418 208.50937,51.19418 M 9.0681625,112.0869 c 74.8690835,91.18891 127.0058975,75.25812 161.7837275,77.36519 48.27412,-6.98939 145.51844,-4.81307 182.95253,2.27063 120.01133,2.32875 208.51502,58.19251 208.51502,58.19251 M 9.6163722,116.88907 c 74.0746898,89.46494 126.5701578,73.53635 159.1881078,74.53175 47.12904,-8.38497 149.17962,-8.72067 185.24152,-2.50875 123.23224,1.56693 208.52067,65.19085 208.52067,65.19085 M 10.101956,121.69906 c 73.280297,87.74098 126.134414,71.81458 156.592474,71.69833 45.98397,-9.78057 152.84082,-12.62828 187.53052,-7.28813 126.45314,0.80509 208.52633,72.18918 208.52633,72.18918 M 10.50407,126.51734 c 72.485903,86.01702 125.69868,70.09282 153.99685,68.8649 44.8389,-11.17615 156.50201,-16.53588 189.81952,-12.06751 129.67404,0.0433 208.53197,79.18752 208.53197,79.18752 M 10.792058,131.34307 c 71.69151,84.29305 125.262932,68.37105 151.401232,66.03147 43.69381,-12.57174 160.16319,-20.44349 192.10851,-16.84689 132.89494,-0.71857 208.53761,86.18585 208.53761,86.18585 M 10.917834,136.17163 c 70.897116,82.56909 124.827196,66.64928 148.805606,63.19804 42.54874,-13.96733 163.82438,-24.3511 194.3975,-21.62627 136.11585,-1.48041 208.54327,93.18418 208.54327,93.18418 M 10.80029,140.98729 c 70.102723,80.84512 124.39146,64.92751 146.20998,60.36461 41.40366,-15.36292 167.48557,-28.25871 196.6865,-26.40564 139.33675,-2.24225 208.54891,100.18251 208.54891,100.18251 M 10.291743,145.73791 c 69.308329,79.12116 123.955717,63.20574 143.614357,57.53118 40.25858,-16.75851 171.14676,-32.16632 198.97549,-31.18503 142.55766,-3.00407 208.55456,107.18085 208.55456,107.18085 M 9.1240816,150.24132 c 68.5139364,77.39719 123.5199784,61.48397 141.0187284,54.69775 39.11351,-18.1541 174.80795,-36.07392 201.26449,-35.9644 145.77856,-3.76591 208.56021,114.17917 208.56021,114.17917 M 7.0276814,153.98107 C 74.747224,229.6543 130.11192,213.74327 145.45079,205.84539 183.41922,186.2957 323.91993,165.86386 349.00427,165.10161 498.00374,160.57387 557.57013,286.27912 557.57013,286.27912"
       inkscape:path-effect="#path-effect6087"
       inkscape:original-d="M -5.7157324,6.8788507 C 86.630007,135.99496 130.87643,120.01588 213.17173,146.57949 c 73.46581,23.71359 64.97228,81.15429 132.59465,107.41697 49.15145,19.08908 208.39076,-95.77082 208.39076,-95.77082 M 7.0276814,153.98107 C 74.747224,229.6543 130.11192,213.74327 145.45079,205.84539 183.41922,186.2957 323.91993,165.86386 349.00427,165.10161 498.00374,160.57387 557.57013,286.27912 557.57013,286.27912"
       class="UnoptimicedTransforms"
       sodipodi:nodetypes="cssccssc"
       transform="matrix(0.88075328,0,0,1.0000562,9.4921471,-0.0080514)" />
  </g>
</svg>
